<svg xmlns="http://www.w3.org/2000/svg" xmlns:xlink="http://www.w3.org/1999/xlink" width="409" height="409" viewBox="0 0 409 409">
    <defs>
        <path id="a" d="M44.973 24.338L26.08 85.024.714 77.362 15.45.035z"/>
    </defs>
    <g fill="none" fill-rule="evenodd">
        <path fill="#004393" fill-rule="nonzero" d="M275.637 388.997h12.52V203.845c0-32.49-25.704-59.71-58.182-60.324-30.48-.572-56.448 22.02-60.098 52.286a6.26 6.26 0 0 0 6.26 7.036 6.26 6.26 0 0 0 6.26-5.622c2.922-23.912 23.493-41.717 47.578-41.18 25.567.602 45.687 22.112 45.687 47.679l-.025 185.277z"/>
        <path fill="#49B2FF" fill-rule="nonzero" d="M205.335 277.327c-7.513-3.994-17.529-16.89 10.667-26.969 1.377-1.077 2.805-2.178 4.244-3.456a7.813 7.813 0 0 0 2.392-8.113 7.337 7.337 0 0 0-7.976-5.146c-3.368.276-2.854-2.341-6.147-4.244a37.887 37.887 0 0 0-4.52-2.379c-8.05-3.218-13.247 2.241-15.475 4.57a19.219 19.219 0 0 1-4.745 2.754c-.159.07-.322.129-.489.176-3.844 1.114-5.847.939-9.453-2.266-7.963-7.087-14.911-3.556-16.852-2.304-1.94 1.252-3.055 3.568-4.057 5.76a31.414 31.414 0 0 1-1.452 2.904 3.43 3.43 0 0 1-.589.826h-.187c-.727.113-.89.138-2.354-.926l-.564-.413a50.745 50.745 0 0 0-10.467-6.06l-.526-.238c-.563-.263-1.252-.601-2.053-.902a12.733 12.733 0 0 0-9.227-.563 8.64 8.64 0 0 0-2.717 1.19 8.764 8.764 0 0 0-3.268 4.745 10.016 10.016 0 0 0 4.194 11.155c5.284 3.468 34.056 12.308 10.956 31.101-52.373 38.325-36.122 84.187-26.406 97.196a54.592 54.592 0 0 0 2.617 3.28 104.77 104.77 0 0 0 11.681 10.092h94.417a52.986 52.986 0 0 0 13.56-12.52c9.678-12.42 31.037-55.967-25.204-99.25z"/>
        <path fill="#FFF" fill-rule="nonzero" d="M187.806 309.968c.65.23 1.05.881.964 1.565v4.006a1.102 1.102 0 0 1-.914 1.04c-.251.05-.507.074-.764.075h-8.902c.06.135.13.265.213.388a13.334 13.334 0 0 1 2.179 4.933c.1.413.288.513.688.5h6.023c1.177 0 1.602.426 1.602 1.578v3.543c0 1.115-.425 1.553-1.565 1.566h-5.984c-.389 0-.539.087-.614.5a14.874 14.874 0 0 1-4.044 7.95 16.865 16.865 0 0 1-5.985 3.907 23.588 23.588 0 0 1-5.471 1.402l-.651.1c.057.111.124.216.2.314 1.753 1.953 3.518 3.893 5.246 5.872a829.027 829.027 0 0 1 5.396 6.26c2.43 2.892 4.82 5.797 7.225 8.702l.125.137a1.377 1.377 0 0 1-.363 2.404h-7.512a2.592 2.592 0 0 1-2.004-.851c-1.414-1.665-2.817-3.356-4.232-5.008a201.438 201.438 0 0 0-3.756-4.32 860.594 860.594 0 0 0-6.26-7.212c-1.778-2.003-3.606-3.981-5.421-5.96a1.728 1.728 0 0 1-.489-1.251v-4.67a1.365 1.365 0 0 1 1.578-1.54h4.17c2.454.074 4.902-.3 7.224-1.102a9.127 9.127 0 0 0 4.407-3.243 6.849 6.849 0 0 0 1.114-2.429h-16.84a5.409 5.409 0 0 1-.776 0 1.252 1.252 0 0 1-.977-1.152v-4.395a1.09 1.09 0 0 1 1.09-1.064 4.62 4.62 0 0 1 .588 0h16.139a2.504 2.504 0 0 0-.138-.363 7.237 7.237 0 0 0-3.844-3.13 16.777 16.777 0 0 0-6.135-1.04h-6.16c-1.252 0-1.665-.575-1.59-1.852a40.065 40.065 0 0 0 0-4.42 1.515 1.515 0 0 1 .952-1.678l34.268-.062z"/>
        <path fill="#FF9C78" fill-rule="nonzero" d="M118.28 136.26l16.665-54.49 22.812 14.9s3.193 5.835 21.372.513c18.18-5.32 29.386-6.836 40.742-5.07 17.203 2.679 89.734 51.546 89.734 51.546s-4.62 15.951-26.13 7.387c0 0-2.505 6.962-14.249 6.962l-25.416-12.771s-4.833 4.169-21.122 4.382h-24.014s-18.23 12.22-37.06 8.401c-18.831-3.819-26.982-15.525-26.982-15.525l-16.352-6.235z"/>
        <path fill="#C16F4F" fill-rule="nonzero" d="M243.81 145.237s7.813-5.685 7.813-15.5c0 0-36.06-1.49-48.354-5.948 0 0 .739-14.861 13.998-13.384 13.259 1.477 86.729 40.629 86.729 40.629s-7.024 6.185-20.484 0c0 0-2.266 6.698-14.248 6.961l-25.454-12.758z" opacity=".5"/>
        <path fill="#FFC400" fill-rule="nonzero" d="M136.372 79.18l-18.893 60.685-25.366-7.662 14.736-77.326z"/>
        <path fill="#C16F4F" fill-rule="nonzero" d="M118.568 136.372l16.89-54.263-2.817 46.188 5.384 2.278s12.52 23.576 60.098 13.31l45.687 1.352s-4.42 4.382-29.849 4.382h-16.139s-32.765 24.502-63.203-7.124l-16.05-6.123z" opacity=".5"/>
        <g opacity=".5" transform="translate(91.399 54.841)">
            <mask id="b" fill="#fff">
                <use xlink:href="#a"/>
            </mask>
            <g fill="#FFF" fill-rule="nonzero" mask="url(#b)">
                <g transform="translate(-80.13 -43.821)">
                    <circle cx="178.829" cy="181.005" r="1.064"/>
                    <circle cx="180.281" cy="173.781" r="1.064"/>
                    <circle cx="181.721" cy="166.569" r="1.064"/>
                    <circle cx="183.174" cy="159.345" r="1.064"/>
                    <circle cx="184.613" cy="152.121" r="1.064"/>
                    <circle cx="186.066" cy="144.909" r="1.064"/>
                    <circle cx="187.506" cy="137.685" r="1.064"/>
                    <circle cx="188.958" cy="130.461" r="1.064"/>
                    <circle cx="190.398" cy="123.249" r="1.064"/>
                    <circle cx="191.85" cy="116.025" r="1.064"/>
                    <circle cx="193.29" cy="108.8" r="1.064"/>
                    <circle cx="194.742" cy="101.589" r="1.064"/>
                    <circle cx="196.182" cy="94.364" r="1.064"/>
                    <circle cx="197.622" cy="87.152" r="1.064"/>
                    <circle cx="199.074" cy="79.928" r="1.064"/>
                    <circle cx="200.514" cy="72.704" r="1.064"/>
                    <circle cx="201.967" cy="65.492" r="1.064"/>
                    <circle cx="203.407" cy="58.268" r="1.064"/>
                    <circle cx="204.859" cy="51.044" r="1.064"/>
                    <circle cx="206.299" cy="43.832" r="1.064"/>
                    <circle cx="207.751" cy="36.608" r="1.064"/>
                    <circle cx="172.256" cy="179.691" r="1.064"/>
                    <circle cx="173.708" cy="172.467" r="1.064"/>
                    <circle cx="175.148" cy="165.255" r="1.064"/>
                    <circle cx="176.6" cy="158.031" r="1.064"/>
                    <circle cx="178.04" cy="150.806" r="1.064"/>
                    <circle cx="179.493" cy="143.594" r="1.064"/>
                    <circle cx="180.932" cy="136.37" r="1.064"/>
                    <circle cx="182.385" cy="129.146" r="1.064"/>
                    <circle cx="183.825" cy="121.934" r="1.064"/>
                    <circle cx="185.277" cy="114.71" r="1.064"/>
                    <circle cx="186.717" cy="107.486" r="1.064"/>
                    <circle cx="188.169" cy="100.274" r="1.064"/>
                    <circle cx="189.609" cy="93.05" r="1.064"/>
                    <circle cx="191.061" cy="85.825" r="1.064"/>
                    <circle cx="192.501" cy="78.614" r="1.064"/>
                    <circle cx="193.954" cy="71.389" r="1.064"/>
                    <circle cx="195.393" cy="64.165" r="1.064"/>
                    <circle cx="196.833" cy="56.953" r="1.064"/>
                    <circle cx="198.286" cy="49.729" r="1.064"/>
                    <circle cx="199.726" cy="42.505" r="1.064"/>
                    <circle cx="201.178" cy="35.293" r="1.064"/>
                    <circle cx="165.695" cy="178.376" r="1.064"/>
                    <circle cx="167.135" cy="171.152" r="1.064"/>
                    <circle cx="168.587" cy="163.94" r="1.064"/>
                    <circle cx="170.027" cy="156.716" r="1.064"/>
                    <circle cx="171.467" cy="149.492" r="1.064"/>
                    <circle cx="172.919" cy="142.28" r="1.064"/>
                    <circle cx="174.359" cy="135.056" r="1.064"/>
                    <circle cx="175.812" cy="127.831" r="1.064"/>
                    <circle cx="177.251" cy="120.62" r="1.064"/>
                    <circle cx="178.704" cy="113.395" r="1.064"/>
                    <circle cx="180.144" cy="106.171" r="1.064"/>
                    <circle cx="181.596" cy="98.959" r="1.064"/>
                    <circle cx="183.036" cy="91.735" r="1.064"/>
                    <circle cx="184.488" cy="84.511" r="1.064"/>
                    <circle cx="185.928" cy="77.299" r="1.064"/>
                    <circle cx="187.38" cy="70.075" r="1.064"/>
                    <circle cx="188.82" cy="62.85" r="1.064"/>
                    <circle cx="190.273" cy="55.639" r="1.064"/>
                    <circle cx="191.712" cy="48.414" r="1.064"/>
                    <circle cx="193.165" cy="41.19" r="1.064"/>
                    <circle cx="194.605" cy="33.978" r="1.064"/>
                    <circle cx="159.122" cy="177.062" r="1.064"/>
                    <circle cx="160.562" cy="169.837" r="1.064"/>
                    <circle cx="162.014" cy="162.613" r="1.064"/>
                    <circle cx="163.454" cy="155.401" r="1.064"/>
                    <circle cx="164.906" cy="148.177" r="1.064"/>
                    <circle cx="166.346" cy="140.953" r="1.064"/>
                    <circle cx="167.799" cy="133.741" r="1.064"/>
                    <circle cx="169.238" cy="126.517" r="1.064"/>
                    <circle cx="170.678" cy="119.305" r="1.064"/>
                    <circle cx="172.131" cy="112.081" r="1.064"/>
                    <circle cx="173.57" cy="104.856" r="1.064"/>
                    <circle cx="175.023" cy="97.645" r="1.064"/>
                    <circle cx="176.463" cy="90.42" r="1.064"/>
                    <circle cx="177.915" cy="83.196" r="1.064"/>
                    <circle cx="179.355" cy="75.984" r="1.064"/>
                    <circle cx="180.807" cy="68.76" r="1.064"/>
                    <circle cx="182.247" cy="61.536" r="1.064"/>
                    <circle cx="183.699" cy="54.324" r="1.064"/>
                    <circle cx="185.139" cy="47.1" r="1.064"/>
                    <circle cx="186.592" cy="39.875" r="1.064"/>
                    <circle cx="188.031" cy="32.664" r="1.064"/>
                    <circle cx="152.549" cy="175.747" r="1.064"/>
                    <circle cx="153.988" cy="168.523" r="1.064"/>
                    <circle cx="155.441" cy="161.298" r="1.064"/>
                    <circle cx="156.881" cy="154.087" r="1.064"/>
                    <circle cx="158.333" cy="146.862" r="1.064"/>
                    <circle cx="159.773" cy="139.638" r="1.064"/>
                    <circle cx="161.225" cy="132.426" r="1.064"/>
                    <circle cx="162.665" cy="125.202" r="1.064"/>
                    <circle cx="164.118" cy="117.978" r="1.064"/>
                    <circle cx="165.557" cy="110.766" r="1.064"/>
                    <circle cx="167.01" cy="103.542" r="1.064"/>
                    <circle cx="168.45" cy="96.317" r="1.064"/>
                    <circle cx="169.889" cy="89.106" r="1.064"/>
                    <circle cx="171.342" cy="81.881" r="1.064"/>
                    <circle cx="172.782" cy="74.657" r="1.064"/>
                    <circle cx="174.234" cy="67.445" r="1.064"/>
                    <circle cx="175.674" cy="60.221" r="1.064"/>
                    <circle cx="177.126" cy="52.997" r="1.064"/>
                    <circle cx="178.566" cy="45.785" r="1.064"/>
                    <circle cx="180.018" cy="38.561" r="1.064"/>
                    <circle cx="181.458" cy="31.349" r="1.064"/>
                    <circle cx="145.975" cy="174.432" r="1.064"/>
                    <circle cx="147.415" cy="167.208" r="1.064"/>
                    <circle cx="148.868" cy="159.984" r="1.064"/>
                    <circle cx="150.308" cy="152.772" r="1.064"/>
                    <circle cx="151.76" cy="145.548" r="1.064"/>
                    <circle cx="153.2" cy="138.323" r="1.064"/>
                    <circle cx="154.652" cy="131.112" r="1.064"/>
                    <circle cx="156.092" cy="123.887" r="1.064"/>
                    <circle cx="157.544" cy="116.663" r="1.064"/>
                    <circle cx="158.984" cy="109.451" r="1.064"/>
                    <circle cx="160.437" cy="102.227" r="1.064"/>
                    <circle cx="161.876" cy="95.003" r="1.064"/>
                    <circle cx="163.329" cy="87.791" r="1.064"/>
                    <circle cx="164.769" cy="80.567" r="1.064"/>
                    <circle cx="166.221" cy="73.342" r="1.064"/>
                    <circle cx="167.661" cy="66.131" r="1.064"/>
                    <circle cx="169.101" cy="58.906" r="1.064"/>
                    <circle cx="170.553" cy="51.682" r="1.064"/>
                    <circle cx="171.993" cy="44.47" r="1.064"/>
                    <circle cx="173.445" cy="37.246" r="1.064"/>
                    <circle cx="174.885" cy="30.022" r="1.064"/>
                    <circle cx="139.402" cy="173.105" r="1.064"/>
                    <circle cx="140.855" cy="165.893" r="1.064"/>
                    <circle cx="142.294" cy="158.669" r="1.064"/>
                    <circle cx="143.747" cy="151.457" r="1.064"/>
                    <circle cx="145.187" cy="144.233" r="1.064"/>
                    <circle cx="146.626" cy="137.009" r="1.064"/>
                    <circle cx="148.079" cy="129.797" r="1.064"/>
                    <circle cx="149.519" cy="122.573" r="1.064"/>
                    <circle cx="150.971" cy="115.348" r="1.064"/>
                    <circle cx="152.411" cy="108.137" r="1.064"/>
                    <circle cx="153.863" cy="100.912" r="1.064"/>
                    <circle cx="155.303" cy="93.688" r="1.064"/>
                    <circle cx="156.756" cy="86.476" r="1.064"/>
                    <circle cx="158.195" cy="79.252" r="1.064"/>
                    <circle cx="159.648" cy="72.028" r="1.064"/>
                    <circle cx="161.088" cy="64.816" r="1.064"/>
                    <circle cx="162.54" cy="57.592" r="1.064"/>
                    <circle cx="163.98" cy="50.368" r="1.064"/>
                    <circle cx="165.432" cy="43.156" r="1.064"/>
                    <circle cx="166.872" cy="35.931" r="1.064"/>
                    <circle cx="168.312" cy="28.707" r="1.064"/>
                    <circle cx="132.829" cy="171.79" r="1.064"/>
                    <circle cx="134.281" cy="164.579" r="1.064"/>
                    <circle cx="135.721" cy="157.354" r="1.064"/>
                    <circle cx="137.174" cy="150.13" r="1.064"/>
                    <circle cx="138.613" cy="142.918" r="1.064"/>
                    <circle cx="140.066" cy="135.694" r="1.064"/>
                    <circle cx="141.506" cy="128.47" r="1.064"/>
                    <circle cx="142.958" cy="121.258" r="1.064"/>
                    <circle cx="144.398" cy="114.034" r="1.064"/>
                    <circle cx="145.838" cy="106.81" r="1.064"/>
                    <circle cx="147.29" cy="99.598" r="1.064"/>
                    <circle cx="148.73" cy="92.373" r="1.064"/>
                    <circle cx="150.182" cy="85.149" r="1.064"/>
                    <circle cx="151.622" cy="77.937" r="1.064"/>
                    <circle cx="153.075" cy="70.713" r="1.064"/>
                    <circle cx="154.514" cy="63.489" r="1.064"/>
                    <circle cx="155.967" cy="56.277" r="1.064"/>
                    <circle cx="157.407" cy="49.053" r="1.064"/>
                    <circle cx="158.859" cy="41.841" r="1.064"/>
                    <circle cx="160.299" cy="34.617" r="1.064"/>
                    <circle cx="161.751" cy="27.393" r="1.064"/>
                    <circle cx="126.256" cy="170.476" r="1.064"/>
                    <circle cx="127.708" cy="163.264" r="1.064"/>
                    <circle cx="129.148" cy="156.04" r="1.064"/>
                    <circle cx="130.6" cy="148.815" r="1.064"/>
                    <circle cx="132.04" cy="141.604" r="1.064"/>
                    <circle cx="133.493" cy="134.379" r="1.064"/>
                    <circle cx="134.932" cy="127.155" r="1.064"/>
                    <circle cx="136.385" cy="119.943" r="1.064"/>
                    <circle cx="137.825" cy="112.719" r="1.064"/>
                    <circle cx="139.277" cy="105.495" r="1.064"/>
                    <circle cx="140.717" cy="98.283" r="1.064"/>
                    <circle cx="142.169" cy="91.059" r="1.064"/>
                    <circle cx="143.609" cy="83.835" r="1.064"/>
                    <circle cx="145.049" cy="76.623" r="1.064"/>
                    <circle cx="146.501" cy="69.399" r="1.064"/>
                    <circle cx="147.941" cy="62.174" r="1.064"/>
                    <circle cx="149.394" cy="54.963" r="1.064"/>
                    <circle cx="150.833" cy="47.738" r="1.064"/>
                    <circle cx="152.286" cy="40.514" r="1.064"/>
                    <circle cx="153.726" cy="33.302" r="1.064"/>
                    <circle cx="155.178" cy="26.078" r="1.064"/>
                    <circle cx="119.683" cy="169.161" r="1.064"/>
                    <circle cx="121.135" cy="161.949" r="1.064"/>
                    <circle cx="122.575" cy="154.725" r="1.064"/>
                    <circle cx="124.027" cy="147.501" r="1.064"/>
                    <circle cx="125.467" cy="140.289" r="1.064"/>
                    <circle cx="126.919" cy="133.065" r="1.064"/>
                    <circle cx="128.359" cy="125.841" r="1.064"/>
                    <circle cx="129.812" cy="118.629" r="1.064"/>
                    <circle cx="131.251" cy="111.405" r="1.064"/>
                    <circle cx="132.704" cy="104.18" r="1.064"/>
                    <circle cx="134.144" cy="96.968" r="1.064"/>
                    <circle cx="135.596" cy="89.744" r="1.064"/>
                    <circle cx="137.036" cy="82.52" r="1.064"/>
                    <circle cx="138.488" cy="75.308" r="1.064"/>
                    <circle cx="139.928" cy="68.084" r="1.064"/>
                    <circle cx="141.38" cy="60.86" r="1.064"/>
                    <circle cx="142.82" cy="53.648" r="1.064"/>
                    <circle cx="144.26" cy="46.424" r="1.064"/>
                    <circle cx="145.713" cy="39.199" r="1.064"/>
                    <circle cx="147.152" cy="31.988" r="1.064"/>
                    <circle cx="148.605" cy="24.763" r="1.064"/>
                    <circle cx="113.122" cy="167.847" r="1.064"/>
                    <circle cx="114.562" cy="160.622" r="1.064"/>
                    <circle cx="116.014" cy="153.41" r="1.064"/>
                    <circle cx="117.454" cy="146.186" r="1.064"/>
                    <circle cx="118.894" cy="138.962" r="1.064"/>
                    <circle cx="120.346" cy="131.75" r="1.064"/>
                    <circle cx="121.786" cy="124.526" r="1.064"/>
                    <circle cx="123.238" cy="117.302" r="1.064"/>
                    <circle cx="124.678" cy="110.09" r="1.064"/>
                    <circle cx="126.131" cy="102.866" r="1.064"/>
                    <circle cx="127.57" cy="95.641" r="1.064"/>
                    <circle cx="129.023" cy="88.43" r="1.064"/>
                    <circle cx="130.463" cy="81.205" r="1.064"/>
                    <circle cx="131.915" cy="73.994" r="1.064"/>
                    <circle cx="133.355" cy="66.769" r="1.064"/>
                    <circle cx="134.807" cy="59.545" r="1.064"/>
                    <circle cx="136.247" cy="52.333" r="1.064"/>
                    <circle cx="137.699" cy="45.109" r="1.064"/>
                    <circle cx="139.139" cy="37.885" r="1.064"/>
                    <circle cx="140.592" cy="30.673" r="1.064"/>
                    <circle cx="142.032" cy="23.449" r="1.064"/>
                    <circle cx="106.549" cy="166.532" r="1.064"/>
                    <circle cx="107.989" cy="159.308" r="1.064"/>
                    <circle cx="109.441" cy="152.096" r="1.064"/>
                    <circle cx="110.881" cy="144.872" r="1.064"/>
                    <circle cx="112.333" cy="137.647" r="1.064"/>
                    <circle cx="113.773" cy="130.436" r="1.064"/>
                    <circle cx="115.225" cy="123.211" r="1.064"/>
                    <circle cx="116.665" cy="115.987" r="1.064"/>
                    <circle cx="118.105" cy="108.775" r="1.064"/>
                    <circle cx="119.557" cy="101.551" r="1.064"/>
                    <circle cx="120.997" cy="94.327" r="1.064"/>
                    <circle cx="122.45" cy="87.115" r="1.064"/>
                    <circle cx="123.889" cy="79.891" r="1.064"/>
                    <circle cx="125.342" cy="72.666" r="1.064"/>
                    <circle cx="126.782" cy="65.455" r="1.064"/>
                    <circle cx="128.234" cy="58.23" r="1.064"/>
                    <circle cx="129.674" cy="51.006" r="1.064"/>
                    <circle cx="131.126" cy="43.794" r="1.064"/>
                    <circle cx="132.566" cy="36.57" r="1.064"/>
                    <circle cx="134.018" cy="29.346" r="1.064"/>
                    <circle cx="135.458" cy="22.134" r="1.064"/>
                    <circle cx="99.975" cy="165.217" r="1.064"/>
                    <circle cx="101.415" cy="157.993" r="1.064"/>
                    <circle cx="102.868" cy="150.781" r="1.064"/>
                    <circle cx="104.308" cy="143.557" r="1.064"/>
                    <circle cx="105.76" cy="136.333" r="1.064"/>
                    <circle cx="107.2" cy="129.121" r="1.064"/>
                    <circle cx="108.652" cy="121.897" r="1.064"/>
                    <circle cx="110.092" cy="114.672" r="1.064"/>
                    <circle cx="111.544" cy="107.461" r="1.064"/>
                    <circle cx="112.984" cy="100.236" r="1.064"/>
                    <circle cx="114.437" cy="93.012" r="1.064"/>
                    <circle cx="115.876" cy="85.8" r="1.064"/>
                    <circle cx="117.316" cy="78.576" r="1.064"/>
                    <circle cx="118.769" cy="71.352" r="1.064"/>
                    <circle cx="120.208" cy="64.14" r="1.064"/>
                    <circle cx="121.661" cy="56.916" r="1.064"/>
                    <circle cx="123.101" cy="49.691" r="1.064"/>
                    <circle cx="124.553" cy="42.48" r="1.064"/>
                    <circle cx="125.993" cy="35.255" r="1.064"/>
                    <circle cx="127.445" cy="28.031" r="1.064"/>
                    <circle cx="128.885" cy="20.819" r="1.064"/>
                    <circle cx="93.402" cy="163.903" r="1.064"/>
                    <circle cx="94.842" cy="156.678" r="1.064"/>
                    <circle cx="96.294" cy="149.454" r="1.064"/>
                    <circle cx="97.734" cy="142.242" r="1.064"/>
                    <circle cx="99.187" cy="135.018" r="1.064"/>
                    <circle cx="100.627" cy="127.794" r="1.064"/>
                    <circle cx="102.079" cy="120.582" r="1.064"/>
                    <circle cx="103.519" cy="113.358" r="1.064"/>
                    <circle cx="104.971" cy="106.146" r="1.064"/>
                    <circle cx="106.411" cy="98.922" r="1.064"/>
                    <circle cx="107.863" cy="91.697" r="1.064"/>
                    <circle cx="109.303" cy="84.486" r="1.064"/>
                    <circle cx="110.756" cy="77.261" r="1.064"/>
                    <circle cx="112.195" cy="70.037" r="1.064"/>
                    <circle cx="113.648" cy="62.825" r="1.064"/>
                    <circle cx="115.088" cy="55.601" r="1.064"/>
                    <circle cx="116.527" cy="48.377" r="1.064"/>
                    <circle cx="117.98" cy="41.165" r="1.064"/>
                    <circle cx="119.42" cy="33.941" r="1.064"/>
                    <circle cx="120.872" cy="26.716" r="1.064"/>
                    <circle cx="122.312" cy="19.505" r="1.064"/>
                    <circle cx="86.829" cy="162.588" r="1.064"/>
                    <circle cx="88.281" cy="155.364" r="1.064"/>
                    <circle cx="89.721" cy="148.139" r="1.064"/>
                    <circle cx="91.174" cy="140.928" r="1.064"/>
                    <circle cx="92.613" cy="133.703" r="1.064"/>
                    <circle cx="94.053" cy="126.479" r="1.064"/>
                    <circle cx="95.506" cy="119.267" r="1.064"/>
                    <circle cx="96.946" cy="112.043" r="1.064"/>
                    <circle cx="98.398" cy="104.819" r="1.064"/>
                    <circle cx="99.838" cy="97.607" r="1.064"/>
                    <circle cx="101.29" cy="90.383" r="1.064"/>
                    <circle cx="102.73" cy="83.158" r="1.064"/>
                    <circle cx="104.182" cy="75.947" r="1.064"/>
                    <circle cx="105.622" cy="68.722" r="1.064"/>
                    <circle cx="107.075" cy="61.498" r="1.064"/>
                    <circle cx="108.514" cy="54.286" r="1.064"/>
                    <circle cx="109.967" cy="47.062" r="1.064"/>
                    <circle cx="111.407" cy="39.838" r="1.064"/>
                    <circle cx="112.859" cy="32.626" r="1.064"/>
                    <circle cx="114.299" cy="25.402" r="1.064"/>
                    <circle cx="115.739" cy="18.178" r="1.064"/>
                    <circle cx="80.256" cy="161.273" r="1.064"/>
                    <circle cx="81.708" cy="154.049" r="1.064"/>
                    <circle cx="83.148" cy="146.825" r="1.064"/>
                    <circle cx="84.6" cy="139.613" r="1.064"/>
                    <circle cx="86.04" cy="132.389" r="1.064"/>
                    <circle cx="87.493" cy="125.164" r="1.064"/>
                    <circle cx="88.932" cy="117.953" r="1.064"/>
                    <circle cx="90.385" cy="110.728" r="1.064"/>
                    <circle cx="91.825" cy="103.504" r="1.064"/>
                    <circle cx="93.265" cy="96.292" r="1.064"/>
                    <circle cx="94.717" cy="89.068" r="1.064"/>
                    <circle cx="96.157" cy="81.844" r="1.064"/>
                    <circle cx="97.609" cy="74.632" r="1.064"/>
                    <circle cx="99.049" cy="67.408" r="1.064"/>
                    <circle cx="100.501" cy="60.184" r="1.064"/>
                    <circle cx="101.941" cy="52.972" r="1.064"/>
                    <circle cx="103.394" cy="45.747" r="1.064"/>
                    <circle cx="104.833" cy="38.523" r="1.064"/>
                    <circle cx="106.286" cy="31.311" r="1.064"/>
                    <circle cx="107.726" cy="24.087" r="1.064"/>
                    <circle cx="109.178" cy="16.863" r="1.064"/>
                    <circle cx="73.683" cy="159.946" r="1.064"/>
                    <circle cx="75.135" cy="152.734" r="1.064"/>
                    <circle cx="76.575" cy="145.51" r="1.064"/>
                    <circle cx="78.027" cy="138.286" r="1.064"/>
                    <circle cx="79.467" cy="131.074" r="1.064"/>
                    <circle cx="80.919" cy="123.85" r="1.064"/>
                    <circle cx="82.359" cy="116.638" r="1.064"/>
                    <circle cx="83.812" cy="109.414" r="1.064"/>
                    <circle cx="85.251" cy="102.189" r="1.064"/>
                    <circle cx="86.704" cy="94.978" r="1.064"/>
                    <circle cx="88.144" cy="87.753" r="1.064"/>
                    <circle cx="89.596" cy="80.529" r="1.064"/>
                    <circle cx="91.036" cy="73.317" r="1.064"/>
                    <circle cx="92.476" cy="66.093" r="1.064"/>
                    <circle cx="93.928" cy="58.869" r="1.064"/>
                    <circle cx="95.368" cy="51.657" r="1.064"/>
                    <circle cx="96.82" cy="44.433" r="1.064"/>
                    <circle cx="98.26" cy="37.209" r="1.064"/>
                    <circle cx="99.713" cy="29.997" r="1.064"/>
                    <circle cx="101.152" cy="22.773" r="1.064"/>
                    <circle cx="102.605" cy="15.548" r="1.064"/>
                    <circle cx="67.109" cy="158.631" r="1.064"/>
                    <circle cx="68.562" cy="151.42" r="1.064"/>
                    <circle cx="70.002" cy="144.195" r="1.064"/>
                    <circle cx="71.454" cy="136.971" r="1.064"/>
                    <circle cx="72.894" cy="129.759" r="1.064"/>
                    <circle cx="74.346" cy="122.535" r="1.064"/>
                    <circle cx="75.786" cy="115.311" r="1.064"/>
                    <circle cx="77.238" cy="108.099" r="1.064"/>
                    <circle cx="78.678" cy="100.875" r="1.064"/>
                    <circle cx="80.131" cy="93.651" r="1.064"/>
                    <circle cx="81.57" cy="86.439" r="1.064"/>
                    <circle cx="83.023" cy="79.215" r="1.064"/>
                    <circle cx="84.463" cy="71.99" r="1.064"/>
                    <circle cx="85.915" cy="64.779" r="1.064"/>
                    <circle cx="87.355" cy="57.554" r="1.064"/>
                    <circle cx="88.807" cy="50.33" r="1.064"/>
                    <circle cx="90.247" cy="43.118" r="1.064"/>
                    <circle cx="91.687" cy="35.894" r="1.064"/>
                    <circle cx="93.139" cy="28.682" r="1.064"/>
                    <circle cx="94.579" cy="21.458" r="1.064"/>
                    <circle cx="96.032" cy="14.234" r="1.064"/>
                    <circle cx="60.549" cy="157.317" r="1.064"/>
                    <circle cx="61.989" cy="150.105" r="1.064"/>
                    <circle cx="63.441" cy="142.881" r="1.064"/>
                    <circle cx="64.881" cy="135.657" r="1.064"/>
                    <circle cx="66.321" cy="128.445" r="1.064"/>
                    <circle cx="67.773" cy="121.221" r="1.064"/>
                    <circle cx="69.213" cy="113.996" r="1.064"/>
                    <circle cx="70.665" cy="106.784" r="1.064"/>
                    <circle cx="72.105" cy="99.56" r="1.064"/>
                    <circle cx="73.557" cy="92.336" r="1.064"/>
                    <circle cx="74.997" cy="85.124" r="1.064"/>
                    <circle cx="76.45" cy="77.9" r="1.064"/>
                    <circle cx="77.889" cy="70.676" r="1.064"/>
                    <circle cx="79.342" cy="63.464" r="1.064"/>
                    <circle cx="80.782" cy="56.24" r="1.064"/>
                    <circle cx="82.234" cy="49.015" r="1.064"/>
                    <circle cx="83.674" cy="41.804" r="1.064"/>
                    <circle cx="85.126" cy="34.579" r="1.064"/>
                    <circle cx="86.566" cy="27.355" r="1.064"/>
                    <circle cx="88.018" cy="20.143" r="1.064"/>
                    <circle cx="89.458" cy="12.919" r="1.064"/>
                    <circle cx="53.975" cy="156.002" r="1.064"/>
                    <circle cx="55.415" cy="148.79" r="1.064"/>
                    <circle cx="56.868" cy="141.566" r="1.064"/>
                    <circle cx="58.308" cy="134.342" r="1.064"/>
                    <circle cx="59.76" cy="127.13" r="1.064"/>
                    <circle cx="61.2" cy="119.906" r="1.064"/>
                    <circle cx="62.652" cy="112.682" r="1.064"/>
                    <circle cx="64.092" cy="105.47" r="1.064"/>
                    <circle cx="65.532" cy="98.246" r="1.064"/>
                    <circle cx="66.984" cy="91.021" r="1.064"/>
                    <circle cx="68.424" cy="83.81" r="1.064"/>
                    <circle cx="69.876" cy="76.585" r="1.064"/>
                    <circle cx="71.316" cy="69.361" r="1.064"/>
                    <circle cx="72.769" cy="62.149" r="1.064"/>
                    <circle cx="74.208" cy="54.925" r="1.064"/>
                    <circle cx="75.661" cy="47.701" r="1.064"/>
                    <circle cx="77.101" cy="40.489" r="1.064"/>
                    <circle cx="78.553" cy="33.265" r="1.064"/>
                    <circle cx="79.993" cy="26.04" r="1.064"/>
                    <circle cx="81.445" cy="18.829" r="1.064"/>
                    <circle cx="82.885" cy="11.604" r="1.064"/>
                    <circle cx="47.402" cy="154.688" r="1.064"/>
                    <circle cx="48.842" cy="147.463" r="1.064"/>
                    <circle cx="50.294" cy="140.252" r="1.064"/>
                    <circle cx="51.734" cy="133.027" r="1.064"/>
                    <circle cx="53.187" cy="125.803" r="1.064"/>
                    <circle cx="54.627" cy="118.591" r="1.064"/>
                    <circle cx="56.079" cy="111.367" r="1.064"/>
                    <circle cx="57.519" cy="104.143" r="1.064"/>
                    <circle cx="58.971" cy="96.931" r="1.064"/>
                    <circle cx="60.411" cy="89.707" r="1.064"/>
                    <circle cx="61.863" cy="82.482" r="1.064"/>
                    <circle cx="63.303" cy="75.271" r="1.064"/>
                    <circle cx="64.743" cy="68.046" r="1.064"/>
                    <circle cx="66.195" cy="60.835" r="1.064"/>
                    <circle cx="67.635" cy="53.61" r="1.064"/>
                    <circle cx="69.088" cy="46.386" r="1.064"/>
                    <circle cx="70.527" cy="39.174" r="1.064"/>
                    <circle cx="71.98" cy="31.95" r="1.064"/>
                    <circle cx="73.42" cy="24.726" r="1.064"/>
                    <circle cx="74.872" cy="17.514" r="1.064"/>
                    <circle cx="76.312" cy="10.29" r="1.064"/>
                    <circle cx="40.829" cy="153.373" r="1.064"/>
                    <circle cx="42.269" cy="146.149" r="1.064"/>
                    <circle cx="43.721" cy="138.937" r="1.064"/>
                    <circle cx="45.161" cy="131.713" r="1.064"/>
                    <circle cx="46.613" cy="124.488" r="1.064"/>
                    <circle cx="48.053" cy="117.277" r="1.064"/>
                    <circle cx="49.506" cy="110.052" r="1.064"/>
                    <circle cx="50.946" cy="102.828" r="1.064"/>
                    <circle cx="52.398" cy="95.616" r="1.064"/>
                    <circle cx="53.838" cy="88.392" r="1.064"/>
                    <circle cx="55.29" cy="81.168" r="1.064"/>
                    <circle cx="56.73" cy="73.956" r="1.064"/>
                    <circle cx="58.182" cy="66.732" r="1.064"/>
                    <circle cx="59.622" cy="59.507" r="1.064"/>
                    <circle cx="61.075" cy="52.296" r="1.064"/>
                    <circle cx="62.514" cy="45.071" r="1.064"/>
                    <circle cx="63.954" cy="37.847" r="1.064"/>
                    <circle cx="65.407" cy="30.635" r="1.064"/>
                    <circle cx="66.846" cy="23.411" r="1.064"/>
                    <circle cx="68.299" cy="16.187" r="1.064"/>
                    <circle cx="69.739" cy="8.975" r="1.064"/>
                    <circle cx="34.256" cy="152.058" r="1.064"/>
                    <circle cx="35.708" cy="144.834" r="1.064"/>
                    <circle cx="37.148" cy="137.622" r="1.064"/>
                    <circle cx="38.588" cy="130.398" r="1.064"/>
                    <circle cx="40.04" cy="123.174" r="1.064"/>
                    <circle cx="41.48" cy="115.962" r="1.064"/>
                    <circle cx="42.932" cy="108.738" r="1.064"/>
                    <circle cx="44.372" cy="101.513" r="1.064"/>
                    <circle cx="45.825" cy="94.302" r="1.064"/>
                    <circle cx="47.265" cy="87.077" r="1.064"/>
                    <circle cx="48.717" cy="79.853" r="1.064"/>
                    <circle cx="50.157" cy="72.641" r="1.064"/>
                    <circle cx="51.609" cy="65.417" r="1.064"/>
                    <circle cx="53.049" cy="58.193" r="1.064"/>
                    <circle cx="54.501" cy="50.981" r="1.064"/>
                    <circle cx="55.941" cy="43.757" r="1.064"/>
                    <circle cx="57.394" cy="36.532" r="1.064"/>
                    <circle cx="58.833" cy="29.321" r="1.064"/>
                    <circle cx="60.286" cy="22.096" r="1.064"/>
                    <circle cx="61.726" cy="14.872" r="1.064"/>
                    <circle cx="63.165" cy="7.66" r="1.064"/>
                    <circle cx="27.683" cy="150.744" r="1.064"/>
                    <circle cx="29.135" cy="143.519" r="1.064"/>
                    <circle cx="30.575" cy="136.295" r="1.064"/>
                    <circle cx="32.027" cy="129.083" r="1.064"/>
                    <circle cx="33.467" cy="121.859" r="1.064"/>
                    <circle cx="34.919" cy="114.635" r="1.064"/>
                    <circle cx="36.359" cy="107.423" r="1.064"/>
                    <circle cx="37.799" cy="100.199" r="1.064"/>
                    <circle cx="39.251" cy="92.974" r="1.064"/>
                    <circle cx="40.691" cy="85.763" r="1.064"/>
                    <circle cx="42.144" cy="78.538" r="1.064"/>
                    <circle cx="43.584" cy="71.327" r="1.064"/>
                    <circle cx="45.036" cy="64.102" r="1.064"/>
                    <circle cx="46.476" cy="56.878" r="1.064"/>
                    <circle cx="47.928" cy="49.666" r="1.064"/>
                    <circle cx="49.368" cy="42.442" r="1.064"/>
                    <circle cx="50.82" cy="35.218" r="1.064"/>
                    <circle cx="52.26" cy="28.006" r="1.064"/>
                    <circle cx="53.713" cy="20.782" r="1.064"/>
                    <circle cx="55.152" cy="13.558" r="1.064"/>
                    <circle cx="56.605" cy="6.346" r="1.064"/>
                    <circle cx="21.109" cy="149.429" r="1.064"/>
                    <circle cx="22.562" cy="142.205" r="1.064"/>
                    <circle cx="24.002" cy="134.98" r="1.064"/>
                    <circle cx="25.454" cy="127.769" r="1.064"/>
                    <circle cx="26.894" cy="120.544" r="1.064"/>
                    <circle cx="28.346" cy="113.32" r="1.064"/>
                    <circle cx="29.786" cy="106.108" r="1.064"/>
                    <circle cx="31.238" cy="98.884" r="1.064"/>
                    <circle cx="32.678" cy="91.66" r="1.064"/>
                    <circle cx="34.131" cy="84.448" r="1.064"/>
                    <circle cx="35.57" cy="77.224" r="1.064"/>
                    <circle cx="37.01" cy="70" r="1.064"/>
                    <circle cx="38.463" cy="62.788" r="1.064"/>
                    <circle cx="39.903" cy="55.563" r="1.064"/>
                    <circle cx="41.355" cy="48.339" r="1.064"/>
                    <circle cx="42.795" cy="41.127" r="1.064"/>
                    <circle cx="44.247" cy="33.903" r="1.064"/>
                    <circle cx="45.687" cy="26.679" r="1.064"/>
                    <circle cx="47.139" cy="19.467" r="1.064"/>
                    <circle cx="48.579" cy="12.243" r="1.064"/>
                    <circle cx="50.032" cy="5.019" r="1.064"/>
                    <circle cx="14.536" cy="148.114" r="1.064"/>
                    <circle cx="15.989" cy="140.89" r="1.064"/>
                    <circle cx="17.428" cy="133.666" r="1.064"/>
                    <circle cx="18.881" cy="126.454" r="1.064"/>
                    <circle cx="20.321" cy="119.23" r="1.064"/>
                    <circle cx="21.773" cy="112.005" r="1.064"/>
                    <circle cx="23.213" cy="104.794" r="1.064"/>
                    <circle cx="24.665" cy="97.569" r="1.064"/>
                    <circle cx="26.105" cy="90.345" r="1.064"/>
                    <circle cx="27.557" cy="83.133" r="1.064"/>
                    <circle cx="28.997" cy="75.909" r="1.064"/>
                    <circle cx="30.45" cy="68.685" r="1.064"/>
                    <circle cx="31.889" cy="61.473" r="1.064"/>
                    <circle cx="33.342" cy="54.249" r="1.064"/>
                    <circle cx="34.782" cy="47.025" r="1.064"/>
                    <circle cx="36.234" cy="39.813" r="1.064"/>
                    <circle cx="37.674" cy="32.589" r="1.064"/>
                    <circle cx="39.114" cy="25.364" r="1.064"/>
                    <circle cx="40.566" cy="18.153" r="1.064"/>
                    <circle cx="42.006" cy="10.928" r="1.064"/>
                    <circle cx="43.458" cy="3.704" r="1.064"/>
                    <circle cx="7.976" cy="146.787" r="1.064"/>
                    <circle cx="9.415" cy="139.575" r="1.064"/>
                    <circle cx="10.868" cy="132.351" r="1.064"/>
                    <circle cx="12.308" cy="125.127" r="1.064"/>
                    <circle cx="13.747" cy="117.915" r="1.064"/>
                    <circle cx="15.2" cy="110.691" r="1.064"/>
                    <circle cx="16.64" cy="103.479" r="1.064"/>
                    <circle cx="18.092" cy="96.255" r="1.064"/>
                    <circle cx="19.532" cy="89.031" r="1.064"/>
                    <circle cx="20.984" cy="81.819" r="1.064"/>
                    <circle cx="22.424" cy="74.595" r="1.064"/>
                    <circle cx="23.876" cy="67.37" r="1.064"/>
                    <circle cx="25.316" cy="60.158" r="1.064"/>
                    <circle cx="26.769" cy="52.934" r="1.064"/>
                    <circle cx="28.208" cy="45.71" r="1.064"/>
                    <circle cx="29.661" cy="38.498" r="1.064"/>
                    <circle cx="31.101" cy="31.274" r="1.064"/>
                    <circle cx="32.553" cy="24.05" r="1.064"/>
                    <circle cx="33.993" cy="16.838" r="1.064"/>
                    <circle cx="35.445" cy="9.614" r="1.064"/>
                    <circle cx="36.885" cy="2.389" r="1.064"/>
                    <circle cx="1.402" cy="145.473" r="1.064"/>
                    <circle cx="2.842" cy="138.261" r="1.064"/>
                    <circle cx="4.295" cy="131.037" r="1.064"/>
                    <circle cx="5.734" cy="123.812" r="1.064"/>
                    <circle cx="7.187" cy="116.6" r="1.064"/>
                    <circle cx="8.627" cy="109.376" r="1.064"/>
                    <circle cx="10.079" cy="102.152" r="1.064"/>
                    <circle cx="11.519" cy="94.94" r="1.064"/>
                    <circle cx="12.959" cy="87.716" r="1.064"/>
                    <circle cx="14.411" cy="80.492" r="1.064"/>
                    <circle cx="15.851" cy="73.28" r="1.064"/>
                    <circle cx="17.303" cy="66.056" r="1.064"/>
                    <circle cx="18.743" cy="58.831" r="1.064"/>
                    <circle cx="20.195" cy="51.62" r="1.064"/>
                    <circle cx="21.635" cy="44.395" r="1.064"/>
                    <circle cx="23.088" cy="37.171" r="1.064"/>
                    <circle cx="24.527" cy="29.959" r="1.064"/>
                    <circle cx="25.98" cy="22.735" r="1.064"/>
                    <circle cx="27.42" cy="15.523" r="1.064"/>
                    <circle cx="28.872" cy="8.299" r="1.064"/>
                    <circle cx="30.312" cy="1.075" r="1.064"/>
                </g>
            </g>
        </g>
        <path fill="#004393" fill-rule="nonzero" d="M42.281 388.997c23.931-.727 47.853-1.215 71.767-1.465 11.957-.176 23.927-.213 35.884-.313l35.883-.1 35.884.1c11.97.1 23.926.137 35.883.313 23.923.233 47.85.722 71.78 1.465-23.93.726-47.857 1.214-71.78 1.464-11.957.176-23.914.2-35.883.313l-35.884.1-35.883-.112c-11.957-.1-23.927-.138-35.884-.313a3430.27 3430.27 0 0 1-71.767-1.452z" opacity=".3"/>
        <circle cx="347.642" cy="182.948" r="6.097" fill="#49B2FF" fill-rule="nonzero" opacity=".2"/>
        <circle cx="202.305" cy="43.446" r="3.806" fill="#49B2FF" fill-rule="nonzero" opacity=".2"/>
        <ellipse cx="46.764" cy="220.797" fill="#49B2FF" fill-rule="nonzero" opacity=".2" rx="9.14" ry="9.002"/>
        <path fill="#004393" fill-rule="nonzero" d="M181.546 268.788s17.053-20.095 40.516-31.376c0 0 4.783 6.173-6.06 12.946 0 0-18.705 5.334-18.705 16.39l-15.751 2.04zM179.893 268.663l-4.607-.726-14.249-39.715s6.95-1.515 11.707 3.105c4.758 4.62 7.425 3.756 7.425 3.756 5.32.1 10.767-5.872 10.767-5.872-11.268 10.016-11.043 39.402-11.043 39.402M163.642 267.198s-4.77-19.206-12.971-27.72l-8.765-5.108s-9.465-6.26-15.876-4.145c0 0 26.293 23.789 31.301 38.137l6.31-1.164z" opacity=".1"/>
        <path stroke="#FFF" stroke-width="2.495" d="M138.588 271.906s36.31-7.863 61.037-7.863M142.557 263.968s29.799 5.546 58.32 5.546"/>
        <path stroke="#FFF" stroke-width="2.495" d="M168.174 281.158s2.504-21.46-3.894-19.644c-3.243.926-.638 5.684-.638 5.684s-6.774 10.267-4.132 22.211"/>
        <path fill="#004393" fill-rule="nonzero" d="M216.954 389.134s-87.856 4.232-95.393-45.774c-8.051-53.35 40.791-73.87 40.791-73.87l-20.871 1.815s-1.115 3.543-12.358 11.556c-11.243 8.013-33.555 33.004-31.113 62.126 2.441 29.123 24.54 44.147 24.54 44.147h94.404zM250.884 365.47l-33.43-41.016a6.398 6.398 0 0 1-1.878-5.572c.589-3.405 21.423-24.728 21.423-24.728l18.217 57.957a85.276 85.276 0 0 1-4.332 13.36z" opacity=".1"/>
        <path fill="#33B571" fill-rule="nonzero" d="M269.114 360.65c1.252 1.653 3.08 1.403 4.307-.363 18.467-26.53 57.243-25.303 75.698-51.834a5.935 5.935 0 0 0 0-6.336l-26.155-35.72c-1.252-1.653-3.08-1.415-4.32.363-18.455 26.518-57.23 25.304-75.685 51.822a5.935 5.935 0 0 0 0 6.335c8.714 11.903 17.432 23.814 26.155 35.733z"/>
        <path fill="#2BA037" fill-rule="nonzero" d="M269.114 360.65c1.252 1.653 3.08 1.403 4.307-.363 18.467-26.53 57.243-25.303 75.698-51.834a5.935 5.935 0 0 0 0-6.336l-26.155-35.72c-1.252-1.653-3.08-1.415-4.32.363-18.455 26.518-57.23 25.304-75.685 51.822a5.935 5.935 0 0 0 0 6.335c8.714 11.903 17.432 23.814 26.155 35.733z"/>
        <path fill="#3BB54A" fill-rule="nonzero" d="M264.043 344.975l-9.879-13.597c4.182-5.61 5.334-13.234 1.352-18.68 16.59-13.773 40.254-17.792 56.843-31.515 3.932 5.36 11.481 6.498 15.676.89l9.953 13.596c-4.194 5.61-5.333 13.222-1.352 18.668-16.602 13.773-40.253 17.792-56.855 31.527-3.981-5.309-11.544-6.56-15.738-.89z"/>
        <path fill="#0E7768" fill-rule="nonzero" d="M283.187 319.446c-5.66-7.725-4.583-16.765 2.604-19.883 7.187-3.117 17.428.35 23.05 8.026 5.622 7.675 4.57 16.777-2.604 19.895-7.175 3.117-17.441-.363-23.05-8.038zm1.252-.614c5.183 7.087 14.536 10.38 21.021 7.512 6.486-2.867 7.387-11.08 2.179-18.192-5.209-7.111-14.549-10.367-21.022-7.512-6.473 2.855-7.412 11.118-2.203 18.192h.025z"/>
        <path fill="#0E7768" fill-rule="nonzero" d="M286.204 318.018c4.507 6.148 12.52 9.103 17.98 6.711 5.458-2.391 6.147-9.44 1.64-15.613-4.508-6.172-12.52-9.09-17.98-6.698-5.459 2.391-6.135 9.34-1.64 15.6z"/>
        <path fill="#FFF" fill-rule="nonzero" d="M295.97 305.085a.376.376 0 0 1 .438.2l.601.864a.3.3 0 0 1 0 .363.864.864 0 0 1-.163.138l-1.79 1.252-.125.088h.1c.465.154.892.406 1.252.738.088.075.138.063.225 0l1.252-.914c.25-.175.401-.137.576.1l.539.764c.175.25.137.4-.1.576-.426.313-.864.614-1.253.902-.087.062-.1.1-.062.2.34.726.458 1.536.338 2.329a4.42 4.42 0 0 1-.714 1.74c-.266.42-.59.799-.964 1.127l-.125.125h.088l2.028.476 2.103.538 2.88.789a.363.363 0 0 1 .288.576l-1.64 1.214a.701.701 0 0 1-.564.113l-1.677-.438-1.453-.376c-.814-.2-1.615-.413-2.504-.6l-2.066-.476a.45.45 0 0 1-.288-.188l-.7-1.002a.363.363 0 0 1 .1-.576l.9-.626a5.196 5.196 0 0 0 1.39-1.327c.294-.395.456-.873.464-1.365a1.903 1.903 0 0 0-.125-.688l-.125.087-3.368 2.454-.176.1a.313.313 0 0 1-.388-.1c-.225-.313-.45-.626-.663-.951a.288.288 0 0 1 .075-.388l.125-.1 3.355-2.342.126-.088-.088-.062a1.866 1.866 0 0 0-1.252-.088 4.12 4.12 0 0 0-1.478.701l-1.327.927c-.263.175-.45.125-.626-.163-.2-.332-.421-.65-.663-.951a.4.4 0 0 1 0-.514l7.224-5.158z"/>
        <path fill="#000" fill-rule="nonzero" d="M258.284 345.864l3.054 4.17s.965-7.263 16.628-21.185c16.476-14.624 24.915-17.153 33.742-28.797 8.827-11.644 9.466-16.49 9.466-16.49s.35-2.504-6.787-7.312l-19.67 26.744-28.508 26.956-18.242 13.51 10.316 2.404z" opacity=".2" style="mix-blend-mode:multiply"/>
        <path fill="#33B571" fill-rule="nonzero" d="M251.435 352.825c1.577 1.315 3.33.626 4.107-1.39 11.53-30.186 49.455-38.337 60.999-68.524a5.96 5.96 0 0 0-1.578-6.135l-33.98-28.384c-1.578-1.252-3.33-.613-4.107 1.403-11.531 30.186-49.455 38.325-60.987 68.524a5.935 5.935 0 0 0 1.565 6.135l33.98 28.371z"/>
        <path fill="#2BA037" fill-rule="nonzero" d="M251.435 352.825c1.577 1.315 3.33.626 4.107-1.39 11.53-30.186 49.455-38.337 60.999-68.524a5.96 5.96 0 0 0-1.578-6.135l-33.98-28.384c-1.578-1.252-3.33-.613-4.107 1.403-11.531 30.186-49.455 38.325-60.987 68.524a5.935 5.935 0 0 0 1.565 6.135l33.98 28.371z"/>
        <path fill="#3BB54A" fill-rule="nonzero" d="M242.758 338.827l-12.933-10.792c2.717-6.46 1.99-14.136-3.18-18.455 12.808-17.316 34.781-26.957 47.577-44.273 5.096 4.257 12.708 3.544 15.425-2.917l12.934 10.805c-2.717 6.46-1.991 14.123 3.18 18.455-12.796 17.316-34.782 26.957-47.578 44.273-5.095-4.257-12.708-3.544-15.425 2.904z"/>
        <path fill="#0E7768" fill-rule="nonzero" d="M255.178 309.454c-7.274-6.135-8.526-15.224-2.266-19.932 6.26-4.708 17.003-3.844 24.302 2.254 7.3 6.097 8.477 15.174 2.254 19.932-6.223 4.758-16.978 3.806-24.29-2.254zm1.052-.889c6.736 5.622 16.615 6.574 22.224 2.28 5.609-4.295 4.507-12.521-2.266-18.18-6.774-5.66-16.615-6.574-22.224-2.28-5.61 4.295-4.495 12.534 2.266 18.18z"/>
        <path fill="#0E7768" fill-rule="nonzero" d="M257.758 307.288c5.86 4.896 14.336 5.822 19.068 2.191 4.733-3.63 3.756-10.642-2.166-15.537-5.922-4.896-14.336-5.822-19.056-2.191-4.72 3.63-3.718 10.642 2.154 15.537z"/>
        <path fill="#FFF" fill-rule="nonzero" d="M264.18 292.44a.388.388 0 0 1 .476.087l.777.701a.288.288 0 0 1 0 .363c-.034.057-.071.112-.113.163l-1.44 1.64-.1.125h.113c.475.04.936.18 1.352.413.1.063.15 0 .225 0 .338-.413.689-.8 1.04-1.252.35-.45.363-.25.588 0l.701.614a.35.35 0 0 1 0 .588l-1.027 1.19c-.075.075-.075.112 0 .2.51.619.816 1.38.877 2.179a4.307 4.307 0 0 1-.263 1.865 5.985 5.985 0 0 1-.664 1.327l-.087.15h4.344l2.98.076c.35 0 .463.2.413.488l-1.252 1.502a.676.676 0 0 1-.513.25H264.744a.488.488 0 0 1-.326-.112l-.926-.814a.35.35 0 0 1 0-.576l.726-.826a5.271 5.271 0 0 0 1.027-1.628c.182-.457.226-.958.125-1.44a2.103 2.103 0 0 0-.3-.638l-.1.125-2.78 3.193-.15.138a.3.3 0 0 1-.389 0l-.876-.764a.288.288 0 0 1 0-.4l.1-.126 2.692-3.08.1-.113h-.087c-.431-.07-.873.01-1.252.226-.478.261-.902.61-1.252 1.026l-1.065 1.252c-.2.226-.4.226-.638 0a20.217 20.217 0 0 0-.877-.763.388.388 0 0 1-.175-.476l5.86-6.874z"/>
    </g>
</svg>
